<svg width="20" height="22" viewBox="0 0 20 22" fill="none" xmlns="http://www.w3.org/2000/svg">
<g id="Solid/Brands/Facebook">
<path id="Union" d="M11.8333 0.395996C10.8111 0.395996 9.83078 0.802059 9.10798 1.52486C8.38519 2.24765 7.97913 3.22797 7.97913 4.25016V6.396H5.91663C5.81307 6.396 5.72913 6.47994 5.72913 6.5835V9.41683C5.72913 9.52038 5.81307 9.60433 5.91663 9.60433H7.97913V15.4168C7.97913 15.5204 8.06307 15.6043 8.16663 15.6043H11C11.1035 15.6043 11.1875 15.5204 11.1875 15.4168V9.60433H13.2682C13.3543 9.60433 13.4293 9.54577 13.4501 9.4623L14.1585 6.62897C14.188 6.51063 14.0985 6.396 13.9766 6.396H11.1875V4.25016C11.1875 4.07888 11.2555 3.91461 11.3766 3.79349C11.4977 3.67237 11.662 3.60433 11.8333 3.60433H14C14.1035 3.60433 14.1875 3.52038 14.1875 3.41683V0.583496C14.1875 0.479943 14.1035 0.395996 14 0.395996H11.8333Z" fill="white"/>
</g>
</svg>
