<svg width="20" height="23" viewBox="0 0 20 23" fill="none" xmlns="http://www.w3.org/2000/svg">
<g id="Solid/Brands/Pinterest">
<path id="Subtract" d="M9.94535 0.979004C8.08581 0.991668 6.28844 1.65007 4.86072 2.84158C3.43301 4.03308 2.46366 5.68365 2.11851 7.51093C1.77336 9.3382 2.07385 11.2286 2.96858 12.8588C3.86331 14.489 5.29667 15.7577 7.02348 16.4478C6.90742 15.6883 6.90742 14.9156 7.02348 14.1561L7.96879 10.1457C7.81919 9.78246 7.74511 9.3926 7.75108 8.99984C7.75108 7.88838 8.39848 7.05192 9.20056 7.05192C9.34586 7.04974 9.48992 7.07898 9.62287 7.13766C9.75582 7.19634 9.87451 7.28306 9.97082 7.39188C10.0671 7.5007 10.1388 7.62906 10.1809 7.76815C10.2229 7.90725 10.2345 8.05379 10.2146 8.19775C10.2146 8.64097 10.0337 9.22705 9.84366 9.84241C9.73894 10.1816 9.63147 10.5296 9.55004 10.8675C9.50072 11.0449 9.49485 11.2315 9.53294 11.4116C9.57103 11.5918 9.65196 11.76 9.76887 11.9022C9.88578 12.0444 10.0352 12.1564 10.2046 12.2286C10.3739 12.3008 10.5582 12.3311 10.7417 12.317C12.1625 12.317 13.2625 10.8103 13.2625 8.64463C13.2768 8.20456 13.1992 7.76635 13.0347 7.35795C12.8702 6.94954 12.6223 6.57992 12.307 6.27265C11.9916 5.96538 11.6157 5.72721 11.2031 5.57335C10.7906 5.41948 10.3505 5.35329 9.91098 5.379C9.4417 5.35885 8.97321 5.43412 8.53387 5.60028C8.09453 5.76643 7.69347 6.02 7.35497 6.34565C7.01647 6.67129 6.74756 7.06224 6.56454 7.49482C6.38151 7.92741 6.28816 8.39263 6.29014 8.86234C6.28377 9.51669 6.48429 10.1563 6.86306 10.6899C6.8906 10.7206 6.91022 10.7574 6.92021 10.7974C6.9302 10.8373 6.93025 10.8791 6.92035 10.9191C6.8573 11.1713 6.71982 11.7212 6.69691 11.83C6.674 11.9389 6.5766 12.0076 6.42764 11.9389C5.42504 11.4691 4.80056 10.0082 4.80056 8.82796C4.80056 6.3014 6.63962 3.97536 10.1 3.97536C12.8787 3.97536 15.0443 5.95765 15.0443 8.61025C15.0443 11.3717 13.3256 13.5946 10.8792 13.5946C10.5206 13.6071 10.1645 13.5298 9.84333 13.3697C9.52216 13.2096 9.24608 12.9718 9.04014 12.678L8.54171 14.5858C8.30277 15.3272 7.96762 16.0341 7.54483 16.6884C8.32387 16.9186 9.13306 17.0306 9.94535 17.0207C12.0726 17.0207 14.1127 16.1756 15.6169 14.6714C17.1211 13.1672 17.9662 11.1271 17.9662 8.99984C17.9662 6.87258 17.1211 4.83245 15.6169 3.32825C14.1127 1.82405 12.0726 0.979004 9.94535 0.979004Z" fill="white"/>
</g>
</svg>
