<svg width="20" height="20" viewBox="0 0 20 20" fill="none" xmlns="http://www.w3.org/2000/svg">
<path d="M9.41666 16.0833C9.26389 15.9306 9.18389 15.7361 9.17666 15.5C9.16944 15.2639 9.2425 15.0694 9.39583 14.9167L13.4792 10.8333H4.16666C3.93055 10.8333 3.7325 10.7533 3.5725 10.5933C3.4125 10.4333 3.33278 10.2356 3.33333 10C3.33333 9.76389 3.41333 9.56583 3.57333 9.40583C3.73333 9.24583 3.93111 9.16611 4.16666 9.16667H13.4792L9.39583 5.08333C9.24305 4.93056 9.17 4.73611 9.17666 4.5C9.18333 4.26389 9.26333 4.06944 9.41666 3.91667C9.56944 3.76389 9.76389 3.6875 10 3.6875C10.2361 3.6875 10.4306 3.76389 10.5833 3.91667L16.0833 9.41667C16.1667 9.48611 16.2258 9.57306 16.2608 9.6775C16.2958 9.78194 16.3131 9.88944 16.3125 10C16.3125 10.1111 16.2953 10.2153 16.2608 10.3125C16.2264 10.4097 16.1672 10.5 16.0833 10.5833L10.5833 16.0833C10.4306 16.2361 10.2361 16.3125 10 16.3125C9.76389 16.3125 9.56944 16.2361 9.41666 16.0833Z" fill="black"/>
</svg>
