<svg xmlns="http://www.w3.org/2000/svg" width="12" height="14" viewBox="0 0 12 14" fill="none">
<g clip-path="url(#clip0_458_620)">
<path d="M6.56397 1.04958L7.85183 3.97911C7.94139 4.18286 8.11455 4.32404 8.31486 4.35667L11.1947 4.82647C11.6992 4.90883 11.9005 5.60458 11.5356 6.00379L9.45171 8.2841C9.30689 8.44266 9.24068 8.67128 9.27498 8.89509L9.76682 12.115C9.85305 12.6789 9.32571 13.1089 8.87459 12.8428L6.29887 11.3227C6.11976 11.2171 5.90563 11.2171 5.72652 11.3227L3.1508 12.8428C2.69968 13.1092 2.17235 12.6789 2.25857 12.115L2.75042 8.89509C2.78472 8.67128 2.7185 8.44266 2.57369 8.2841L0.489819 6.00379C0.124922 5.60431 0.326187 4.90856 0.83066 4.82647L3.71054 4.35667C3.91085 4.32404 4.08401 4.18286 4.17356 3.97911L5.46142 1.04958C5.68674 0.536453 6.33841 0.536453 6.56397 1.04958Z" fill="#FFFF00"/>
</g>
<defs>
<clipPath id="clip0_458_620">
<rect width="11.4185" height="12.8187" fill="white" transform="translate(0.303223 0.384827)"/>
</clipPath>
</defs>
</svg>