<svg xmlns="http://www.w3.org/2000/svg" width="13" height="14" viewBox="0 0 13 14" fill="none">
<g clip-path="url(#clip0_458_616)">
<path d="M7.25611 1.04958L8.54397 3.97911C8.63353 4.18286 8.80669 4.32404 9.007 4.35667L11.8869 4.82647C12.3913 4.90883 12.5926 5.60458 12.2277 6.00379L10.1438 8.2841C9.99903 8.44266 9.93282 8.67128 9.96711 8.89509L10.459 12.115C10.5452 12.6789 10.0178 13.1089 9.56673 12.8428L6.99101 11.3227C6.8119 11.2171 6.59777 11.2171 6.41866 11.3227L3.84294 12.8428C3.39182 13.1092 2.86449 12.6789 2.95071 12.115L3.44256 8.89509C3.47686 8.67128 3.41064 8.44266 3.26582 8.2841L1.18196 6.00379C0.817061 5.60431 1.01833 4.90856 1.5228 4.82647L4.40267 4.35667C4.60299 4.32404 4.77615 4.18286 4.8657 3.97911L6.15356 1.04958C6.37888 0.536453 7.03055 0.536453 7.25611 1.04958Z" fill="#EEEEEE"/>
</g>
<defs>
<clipPath id="clip0_458_616">
<rect width="11.4185" height="12.8187" fill="white" transform="translate(0.995605 0.384827)"/>
</clipPath>
</defs>
</svg>