<svg xmlns="http://www.w3.org/2000/svg" width="17" height="18" viewBox="0 0 17 18" fill="none">
<g clip-path="url(#clip0_458_603)">
<path d="M8.29455 0.295898C3.744 0.295898 0.0419922 4.19721 0.0419922 8.99248C0.0419922 13.788 3.744 17.6893 8.29455 17.6893C12.8451 17.6893 16.5473 13.788 16.5473 8.99248C16.5473 4.19721 12.8449 0.295898 8.29455 0.295898ZM8.29455 16.4319C4.40203 16.4319 1.23496 13.0945 1.23496 8.99248C1.23496 4.89042 4.40183 1.55324 8.29455 1.55324C12.1873 1.55324 15.3541 4.89042 15.3541 8.99248C15.3541 13.0945 12.1873 16.4319 8.29455 16.4319Z" fill="black"/>
<path d="M10.6823 9.79298C10.6791 9.79298 10.6763 9.79298 10.6731 9.79298L8.89092 9.82106V4.90613C8.89092 4.5589 8.62385 4.27747 8.29434 4.27747C7.96483 4.27747 7.69775 4.5589 7.69775 4.90613V10.4594C7.69775 10.4606 7.69815 10.4619 7.69815 10.4631C7.69815 10.4652 7.69775 10.4671 7.69775 10.4688C7.69815 10.4944 7.70273 10.5185 7.70591 10.543C7.7079 10.5583 7.7081 10.574 7.71088 10.5891C7.71625 10.6161 7.7252 10.6413 7.73375 10.6666C7.73812 10.6798 7.74091 10.6937 7.74608 10.7062C7.75642 10.732 7.77034 10.7555 7.78366 10.7796C7.78983 10.7903 7.7944 10.802 7.80096 10.8125C7.81608 10.8357 7.83417 10.8565 7.85207 10.8776C7.85963 10.8864 7.86579 10.8965 7.87375 10.9051C7.89304 10.9252 7.91471 10.9422 7.93639 10.9596C7.94514 10.9665 7.95289 10.9749 7.96184 10.9814C7.98531 10.9981 8.01096 11.0113 8.03661 11.0243C8.04556 11.0287 8.05352 11.035 8.06266 11.039C8.09249 11.0522 8.12431 11.0614 8.15653 11.0696C8.16249 11.0711 8.16806 11.074 8.17423 11.0753C8.21281 11.0834 8.25278 11.088 8.29374 11.088C8.29673 11.088 8.29991 11.088 8.30289 11.088L10.6908 11.0503C11.0201 11.0451 11.2832 10.7592 11.2785 10.4122C11.2739 10.0683 11.0076 9.79298 10.6823 9.79298Z" fill="black"/>
</g>
<defs>
<clipPath id="clip0_458_603">
<rect width="16.5057" height="17.3934" fill="white" transform="translate(0.0415039 0.295898)"/>
</clipPath>
</defs>
</svg>