<svg width="20" height="21" viewBox="0 0 20 21" fill="none" xmlns="http://www.w3.org/2000/svg">
<g id="Solid/Brands/Twitter">
<path id="Vector" d="M18.1748 2.18953C18.2231 2.12222 18.1518 2.03531 18.0745 2.06525C17.5256 2.27803 16.9519 2.42158 16.3667 2.49233C17.0183 2.10306 17.5211 1.51049 17.7999 0.808941C17.8283 0.737474 17.7503 0.673652 17.683 0.71083C17.0774 1.04528 16.4242 1.28611 15.7458 1.42481C15.7174 1.43061 15.6881 1.42094 15.6682 1.39991C15.159 0.862676 14.4888 0.50498 13.7582 0.381373C13.0122 0.255168 12.2455 0.380128 11.5782 0.736654C10.9109 1.09318 10.3808 1.66111 10.0711 2.35136C9.77655 3.00766 9.69708 3.73925 9.84234 4.44186C9.85361 4.49637 9.81094 4.54784 9.75538 4.54439C8.43533 4.4624 7.14558 4.1113 5.96557 3.51221C4.78856 2.91466 3.74628 2.08335 2.90222 1.06958C2.86476 1.02458 2.79377 1.03041 2.76647 1.0822C2.50383 1.58059 2.36632 2.13608 2.36669 2.70066C2.36562 3.26265 2.50354 3.81618 2.76815 4.31197C3.03277 4.80776 3.41587 5.23042 3.88336 5.54233C3.38759 5.52884 2.90148 5.40628 2.4594 5.18406C2.40242 5.15542 2.33408 5.1962 2.33705 5.25989C2.37152 6.00092 2.64357 6.74486 3.11445 7.31563C3.61555 7.92303 4.31107 8.3387 5.08336 8.49233C4.78607 8.5828 4.47742 8.6305 4.16669 8.634C3.99757 8.63202 3.82879 8.61954 3.6613 8.59664C3.5992 8.58815 3.5485 8.64714 3.57024 8.70593C3.80058 9.32884 4.20752 9.87237 4.74259 10.2691C5.31463 10.6933 6.00467 10.9286 6.71669 10.9423C5.51436 11.8884 4.02993 12.4047 2.50002 12.409C2.34282 12.4095 2.18569 12.4044 2.02892 12.3937C1.94058 12.3877 1.89996 12.5054 1.9761 12.5506C3.46674 13.4352 5.17051 13.9028 6.90836 13.9007C8.19143 13.914 9.4643 13.6715 10.6526 13.1874C11.8409 12.7033 12.9209 11.9872 13.8294 11.0811C14.7378 10.1749 15.4567 9.09682 15.9438 7.90975C16.431 6.72268 16.6767 5.45044 16.6667 4.16733V3.76747C16.6667 3.74116 16.6791 3.71642 16.7001 3.70057C17.2654 3.27378 17.7624 2.76425 18.1748 2.18953Z" fill="white"/>
</g>
</svg>
