<svg width="45" height="45" viewBox="0 0 45 45" fill="none" xmlns="http://www.w3.org/2000/svg">
<g id="Users">
<path id="Vector" d="M15.2512 27.7483C20.1873 27.7483 24.1887 23.7468 24.1887 18.8108C24.1887 13.8747 20.1873 9.87329 15.2512 9.87329C10.3152 9.87329 6.31372 13.8747 6.31372 18.8108C6.31372 23.7468 10.3152 27.7483 15.2512 27.7483Z" stroke="white" stroke-width="3" stroke-miterlimit="10"/>
<path id="Vector_2" d="M26.8356 10.1999C27.6256 9.98557 28.4404 9.87578 29.259 9.87329C31.6294 9.87329 33.9027 10.8149 35.5788 12.491C37.2549 14.1671 38.1965 16.4404 38.1965 18.8108C38.1965 21.1812 37.2549 23.4545 35.5788 25.1306C33.9027 26.8067 31.6294 27.7483 29.259 27.7483" stroke="white" stroke-width="3" stroke-linecap="round" stroke-linejoin="round"/>
<path id="Vector_3" d="M2.87622 34.1763C4.27175 32.1904 6.12472 30.5696 8.27861 29.4506C10.4325 28.3317 12.824 27.7476 15.2512 27.7476C17.6784 27.7476 20.0699 28.3317 22.2238 29.4506C24.3777 30.5696 26.2307 32.1904 27.6262 34.1763" stroke="white" stroke-width="3" stroke-linecap="round" stroke-linejoin="round"/>
<path id="Vector_4" d="M29.259 27.7483C31.6864 27.7468 34.0784 28.3302 36.2326 29.4492C38.3867 30.5681 40.2395 32.1896 41.634 34.1764" stroke="white" stroke-width="3" stroke-linecap="round" stroke-linejoin="round"/>
</g>
</svg>
