<svg width="44" height="45" viewBox="0 0 44 45" fill="none" xmlns="http://www.w3.org/2000/svg">
<g id="UsersThree">
<path id="Vector" d="M22 31.926C25.797 31.926 28.875 28.848 28.875 25.051C28.875 21.2541 25.797 18.176 22 18.176C18.203 18.176 15.125 21.2541 15.125 25.051C15.125 28.848 18.203 31.926 22 31.926Z" stroke="white" stroke-width="3" stroke-linecap="round" stroke-linejoin="round"/>
<path id="Vector_2" d="M33.6875 20.926C35.2889 20.9234 36.8688 21.2949 38.3012 22.0111C39.7336 22.7273 40.9788 23.7683 41.9375 25.051" stroke="white" stroke-width="3" stroke-linecap="round" stroke-linejoin="round"/>
<path id="Vector_3" d="M2.0625 25.051C3.02122 23.7683 4.26642 22.7273 5.69879 22.0111C7.13116 21.2949 8.71106 20.9234 10.3125 20.926" stroke="white" stroke-width="3" stroke-linecap="round" stroke-linejoin="round"/>
<path id="Vector_4" d="M12.1 38.1135C13.0055 36.2591 14.4136 34.6964 16.1639 33.6032C17.9142 32.51 19.9364 31.9304 22 31.9304C24.0636 31.9304 26.0858 32.51 27.8361 33.6032C29.5864 34.6964 30.9945 36.2591 31.9 38.1135" stroke="white" stroke-width="3" stroke-linecap="round" stroke-linejoin="round"/>
<path id="Vector_5" d="M10.3125 20.926C9.2686 20.9271 8.24596 20.631 7.36406 20.0725C6.48217 19.5139 5.77744 18.7159 5.33222 17.7717C4.88701 16.8276 4.71969 15.7762 4.84982 14.7404C4.97995 13.7046 5.40216 12.7273 6.0671 11.9226C6.73205 11.1179 7.61228 10.519 8.60494 10.196C9.5976 9.87296 10.6617 9.83909 11.6729 10.0983C12.6841 10.3576 13.6006 10.8993 14.3154 11.6601C15.0301 12.4209 15.5136 13.3694 15.7094 14.3948" stroke="white" stroke-width="3" stroke-linecap="round" stroke-linejoin="round"/>
<path id="Vector_6" d="M28.2906 14.3948C28.4864 13.3694 28.9698 12.4209 29.6846 11.6601C30.3994 10.8993 31.3159 10.3576 32.3271 10.0983C33.3383 9.83909 34.4024 9.87296 35.3951 10.196C36.3877 10.519 37.2679 11.1179 37.9329 11.9226C38.5978 12.7273 39.02 13.7046 39.1502 14.7404C39.2803 15.7762 39.113 16.8276 38.6678 17.7717C38.2226 18.7159 37.5178 19.5139 36.6359 20.0725C35.754 20.631 34.7314 20.9271 33.6875 20.926" stroke="white" stroke-width="3" stroke-linecap="round" stroke-linejoin="round"/>
</g>
</svg>
