<svg width="44" height="45" viewBox="0 0 44 45" fill="none" xmlns="http://www.w3.org/2000/svg">
<g id="VideoCamera">
<path id="Vector" d="M4.125 11.301H26.125C27.5837 11.301 28.9826 11.8805 30.0141 12.9119C31.0455 13.9434 31.625 15.3423 31.625 16.801V33.301C31.625 33.6657 31.4801 34.0154 31.2223 34.2733C30.9644 34.5312 30.6147 34.676 30.25 34.676H8.25C6.79131 34.676 5.39236 34.0966 4.36091 33.0651C3.32946 32.0337 2.75 30.6347 2.75 29.176V12.676C2.75 12.3114 2.89487 11.9616 3.15273 11.7038C3.41059 11.4459 3.76033 11.301 4.125 11.301V11.301Z" stroke="white" stroke-width="3" stroke-linecap="round" stroke-linejoin="round"/>
<path id="Vector_2" d="M31.625 20.2385L41.25 14.7385V31.2385L31.625 25.7385" stroke="white" stroke-width="3" stroke-linecap="round" stroke-linejoin="round"/>
</g>
</svg>
