<svg xmlns="http://www.w3.org/2000/svg" width="30" height="27" viewBox="0 0 30 27" fill="none">
<path d="M5.81903 5.69348C3.94337 5.69348 2.42285 7.02552 2.42285 8.66866V18.2808C2.42285 19.9239 3.94337 21.256 5.81903 21.256H16.7937C18.6693 21.256 20.1899 19.9239 20.1899 18.2808V16.835L24.9352 19.6836C25.802 20.2039 26.9797 19.6602 26.9797 18.7396V8.2095C26.9797 7.28908 25.8023 6.7453 24.9354 7.26537L20.1899 10.1125V8.66866C20.1899 7.02552 18.6693 5.69348 16.7937 5.69348H5.81903ZM20.1899 15.1705V11.7768L25.4122 8.64361V18.3054L20.1899 15.1705ZM18.6224 8.66866V18.2808C18.6224 19.1656 17.8036 19.8828 16.7937 19.8828H5.81903C4.80906 19.8828 3.99032 19.1656 3.99032 18.2808V8.66866C3.99032 7.78389 4.80906 7.06664 5.81903 7.06664H16.7937C17.8037 7.06664 18.6224 7.78389 18.6224 8.66866Z" fill="#212121"/>
</svg>