<svg width="98" height="99" viewBox="0 0 98 99" fill="none" xmlns="http://www.w3.org/2000/svg">
<g id="Circle" filter="url(#filter0_dd_208_846)">
<g clip-path="url(#clip0_208_846)">
<rect x="7" y="3" width="84" height="84" rx="42" fill="#D4AF2C"/>
<g id="Element">
<path d="M-4.19977 3H102.2V87H-4.19977V3Z" fill="#AF010D"/>
<path fill-rule="evenodd" clip-rule="evenodd" d="M48.9997 29.7569L42.4645 25.4001L38.1133 29.7569H42.4645L38.1133 34.1137L29.3997 29.7569V51.5409L42.4645 47.1729L38.1133 55.8865H33.7565L38.1133 60.2433L42.4645 55.8865L48.9997 64.6001V29.7569ZM55.5349 25.4001L59.8861 29.7569H55.5349L59.8861 34.1137L68.5997 29.7569V51.5409L55.5349 47.1729L59.8861 55.8865H64.2429L59.8861 60.2433L55.5349 55.8865L48.9997 64.6001V29.7569L55.5349 25.4001Z" fill="#D4AF2C"/>
<path fill-rule="evenodd" clip-rule="evenodd" d="M40.5999 39.428C40.5999 34.78 44.3295 31 48.9999 31C53.6367 31 57.3999 34.7688 57.3999 39.428V37.5072C57.3999 42.1552 54.5551 48.4608 51.1279 51.5184L48.9999 53.4L46.8719 51.5184C43.4167 48.4384 40.5999 42.1664 40.5999 37.5072V39.428Z" fill="#1A47B8"/>
<path fill-rule="evenodd" clip-rule="evenodd" d="M40.5999 36.6002H57.3999V42.2002H40.5999V36.6002Z" fill="#AE6A3E"/>
</g>
</g>
</g>
<defs>
<filter id="filter0_dd_208_846" x="0.142858" y="0.714286" width="97.7143" height="97.7143" filterUnits="userSpaceOnUse" color-interpolation-filters="sRGB">
<feFlood flood-opacity="0" result="BackgroundImageFix"/>
<feColorMatrix in="SourceAlpha" type="matrix" values="0 0 0 0 0 0 0 0 0 0 0 0 0 0 0 0 0 0 127 0" result="hardAlpha"/>
<feOffset dy="4.57143"/>
<feGaussianBlur stdDeviation="3.42857"/>
<feComposite in2="hardAlpha" operator="out"/>
<feColorMatrix type="matrix" values="0 0 0 0 0.258824 0 0 0 0 0.278431 0 0 0 0 0.298039 0 0 0 0.08 0"/>
<feBlend mode="normal" in2="BackgroundImageFix" result="effect1_dropShadow_208_846"/>
<feColorMatrix in="SourceAlpha" type="matrix" values="0 0 0 0 0 0 0 0 0 0 0 0 0 0 0 0 0 0 127 0" result="hardAlpha"/>
<feOffset/>
<feGaussianBlur stdDeviation="0.285714"/>
<feComposite in2="hardAlpha" operator="out"/>
<feColorMatrix type="matrix" values="0 0 0 0 0.258824 0 0 0 0 0.278431 0 0 0 0 0.298039 0 0 0 0.32 0"/>
<feBlend mode="normal" in2="effect1_dropShadow_208_846" result="effect2_dropShadow_208_846"/>
<feBlend mode="normal" in="SourceGraphic" in2="effect2_dropShadow_208_846" result="shape"/>
</filter>
<clipPath id="clip0_208_846">
<rect x="7" y="3" width="84" height="84" rx="42" fill="white"/>
</clipPath>
</defs>
</svg>
