<svg width="98" height="99" viewBox="0 0 98 99" fill="none" xmlns="http://www.w3.org/2000/svg">
<g id="Circle" filter="url(#filter0_dd_208_796)">
<g clip-path="url(#clip0_208_796)">
<rect x="7" y="3" width="84" height="84" rx="42" fill="#249F58"/>
<g id="Element">
<path id="Element_2" fill-rule="evenodd" clip-rule="evenodd" d="M6.99878 14.1998H90.9988V75.7998H6.99878V14.1998Z" fill="#FFDA2C"/>
<path id="Element_3" fill-rule="evenodd" clip-rule="evenodd" d="M6.99878 25.3995H90.9988V64.5995H6.99878V25.3995Z" fill="#F93939"/>
<path id="Element_4" fill-rule="evenodd" clip-rule="evenodd" d="M6.99878 36.5999H90.9988V53.3999H6.99878V36.5999Z" fill="#151515"/>
<path id="Element_5" fill-rule="evenodd" clip-rule="evenodd" d="M10.9989 3L54.9989 45L10.9989 87H6.9989V3" fill="#151515"/>
<path id="Element_6" fill-rule="evenodd" clip-rule="evenodd" d="M6.9989 3L50.9989 45L6.9989 87V3Z" fill="white"/>
<path id="Element_7" fill-rule="evenodd" clip-rule="evenodd" d="M23.7992 49.5717L16.8757 53.4L18.1945 45.2928L12.5992 39.548L20.3375 38.3742L23.7992 31L27.2609 38.3792L34.9992 39.5529L29.3945 45.2978L30.7132 53.4" fill="#F93939"/>
<path id="Element_8" fill-rule="evenodd" clip-rule="evenodd" d="M18.1991 47.7999H29.3991V44.0665L25.6658 40.3332C25.6658 40.3332 25.6658 36.5999 21.9324 36.5999H18.1991L21.9324 40.3332L18.1991 47.7999Z" fill="#FFDA2C"/>
</g>
</g>
</g>
<defs>
<filter id="filter0_dd_208_796" x="0.142858" y="0.714286" width="97.7143" height="97.7143" filterUnits="userSpaceOnUse" color-interpolation-filters="sRGB">
<feFlood flood-opacity="0" result="BackgroundImageFix"/>
<feColorMatrix in="SourceAlpha" type="matrix" values="0 0 0 0 0 0 0 0 0 0 0 0 0 0 0 0 0 0 127 0" result="hardAlpha"/>
<feOffset dy="4.57143"/>
<feGaussianBlur stdDeviation="3.42857"/>
<feComposite in2="hardAlpha" operator="out"/>
<feColorMatrix type="matrix" values="0 0 0 0 0.258824 0 0 0 0 0.278431 0 0 0 0 0.298039 0 0 0 0.08 0"/>
<feBlend mode="normal" in2="BackgroundImageFix" result="effect1_dropShadow_208_796"/>
<feColorMatrix in="SourceAlpha" type="matrix" values="0 0 0 0 0 0 0 0 0 0 0 0 0 0 0 0 0 0 127 0" result="hardAlpha"/>
<feOffset/>
<feGaussianBlur stdDeviation="0.285714"/>
<feComposite in2="hardAlpha" operator="out"/>
<feColorMatrix type="matrix" values="0 0 0 0 0.258824 0 0 0 0 0.278431 0 0 0 0 0.298039 0 0 0 0.32 0"/>
<feBlend mode="normal" in2="effect1_dropShadow_208_796" result="effect2_dropShadow_208_796"/>
<feBlend mode="normal" in="SourceGraphic" in2="effect2_dropShadow_208_796" result="shape"/>
</filter>
<clipPath id="clip0_208_796">
<rect x="7" y="3" width="84" height="84" rx="42" fill="white"/>
</clipPath>
</defs>
</svg>
