<svg width="98" height="99" viewBox="0 0 98 99" fill="none" xmlns="http://www.w3.org/2000/svg">
<g id="Circle" filter="url(#filter0_dd_208_807)">
<g clip-path="url(#clip0_208_807)">
<g id="Element">
<path d="M96.6003 3H1.40032C-4.78527 3 -9.79968 8.01441 -9.79968 14.2V75.8C-9.79968 81.9856 -4.78527 87 1.40032 87H96.6003C102.786 87 107.8 81.9856 107.8 75.8V14.2C107.8 8.01441 102.786 3 96.6003 3Z" fill="white"/>
<path fill-rule="evenodd" clip-rule="evenodd" d="M-9.79968 59H107.8V87H-9.79968V59Z" fill="#151515"/>
<path fill-rule="evenodd" clip-rule="evenodd" d="M-9.79968 3H107.8V31H-9.79968V3Z" fill="#F93939"/>
<path fill-rule="evenodd" clip-rule="evenodd" d="M49.0008 42.2002L40.6008 36.6002L35.0008 42.2002L40.6008 53.4002L46.2008 47.8002H51.8008L57.4008 53.4002L63.0008 42.2002L57.4008 36.6002L49.0008 42.2002Z" fill="#D4AF2C"/>
</g>
</g>
</g>
<defs>
<filter id="filter0_dd_208_807" x="0.142858" y="0.714286" width="97.7143" height="97.7143" filterUnits="userSpaceOnUse" color-interpolation-filters="sRGB">
<feFlood flood-opacity="0" result="BackgroundImageFix"/>
<feColorMatrix in="SourceAlpha" type="matrix" values="0 0 0 0 0 0 0 0 0 0 0 0 0 0 0 0 0 0 127 0" result="hardAlpha"/>
<feOffset dy="4.57143"/>
<feGaussianBlur stdDeviation="3.42857"/>
<feComposite in2="hardAlpha" operator="out"/>
<feColorMatrix type="matrix" values="0 0 0 0 0.258824 0 0 0 0 0.278431 0 0 0 0 0.298039 0 0 0 0.08 0"/>
<feBlend mode="normal" in2="BackgroundImageFix" result="effect1_dropShadow_208_807"/>
<feColorMatrix in="SourceAlpha" type="matrix" values="0 0 0 0 0 0 0 0 0 0 0 0 0 0 0 0 0 0 127 0" result="hardAlpha"/>
<feOffset/>
<feGaussianBlur stdDeviation="0.285714"/>
<feComposite in2="hardAlpha" operator="out"/>
<feColorMatrix type="matrix" values="0 0 0 0 0.258824 0 0 0 0 0.278431 0 0 0 0 0.298039 0 0 0 0.32 0"/>
<feBlend mode="normal" in2="effect1_dropShadow_208_807" result="effect2_dropShadow_208_807"/>
<feBlend mode="normal" in="SourceGraphic" in2="effect2_dropShadow_208_807" result="shape"/>
</filter>
<clipPath id="clip0_208_807">
<rect x="7" y="3" width="84" height="84" rx="42" fill="white"/>
</clipPath>
</defs>
</svg>
