<svg width="98" height="99" viewBox="0 0 98 99" fill="none" xmlns="http://www.w3.org/2000/svg">
<g id="Circle" filter="url(#filter0_dd_208_810)">
<g clip-path="url(#clip0_208_810)">
<rect x="7" y="3" width="84" height="84" rx="42" fill="#151515"/>
<g id="Element">
<path id="Element_2" fill-rule="evenodd" clip-rule="evenodd" d="M-10 58.6808H107.6V64.2808H-10V58.6808Z" fill="white"/>
<path id="Element_3" fill-rule="evenodd" clip-rule="evenodd" d="M-10 64.2812H107.6V86.6812H-10V64.2812Z" fill="#0A6A30"/>
<path id="Element_4" fill-rule="evenodd" clip-rule="evenodd" d="M-10 30.6808H107.6V58.6808H-10V30.6808Z" fill="#F93939"/>
<path id="Element_5" fill-rule="evenodd" clip-rule="evenodd" d="M-10 25.0803H107.6V30.6803H-10V25.0803Z" fill="white"/>
<path id="Element_6" fill-rule="evenodd" clip-rule="evenodd" d="M59.5191 35.8C59.9223 35.8 62.3191 32.048 62.3191 27.4C62.3191 22.7632 59.9223 19 59.5191 19C59.1271 19 56.7191 22.7632 56.7191 27.4C56.7191 32.048 59.1271 35.8 59.5191 35.8ZM43.0607 33.3416C42.7807 33.6216 38.4127 32.6696 35.1423 29.3824C31.8663 26.1008 30.9031 21.744 31.1887 21.464C31.4687 21.184 35.8255 22.136 39.1071 25.4232C42.3887 28.7048 43.3463 33.0616 43.0663 33.3472L43.0607 33.3416ZM53.5831 58.7264C53.8631 58.4632 58.2311 59.3592 61.5071 62.4224C64.7831 65.5024 65.7463 69.5736 65.4663 69.8368C65.1863 70.1 60.8183 69.204 57.5367 66.1408C54.2607 63.0608 53.2975 58.9896 53.5831 58.7264ZM43.0607 58.7264C42.7807 58.4632 38.4127 59.3592 35.1423 62.4224C31.8663 65.5024 30.9031 69.5736 31.1887 69.8368C31.4687 70.1 35.8255 69.204 39.1071 66.1408C42.3887 63.0608 43.3463 58.9896 43.0663 58.7264H43.0607Z" fill="white"/>
<path id="Element_7" fill-rule="evenodd" clip-rule="evenodd" d="M48.7997 69.8811C50.7989 69.8811 62.7997 58.5971 62.7997 44.6811C62.7997 30.7651 50.7989 19.4811 48.7997 19.4811C46.8005 19.4811 34.7997 30.7651 34.7997 44.6811C34.7997 58.5971 46.8005 69.8811 48.7997 69.8811Z" fill="#F93939"/>
<path id="Element_8" fill-rule="evenodd" clip-rule="evenodd" d="M37.5997 53.0812C37.9917 53.0812 40.3997 49.318 40.3997 44.6812C40.3997 40.0444 37.9917 36.2812 37.5997 36.2812C37.2077 36.2812 34.7997 40.0444 34.7997 44.6812C34.7997 49.318 37.2077 53.0812 37.5997 53.0812ZM59.9997 53.0812C60.3917 53.0812 62.7997 49.318 62.7997 44.6812C62.7997 40.0444 60.3917 36.2812 59.9997 36.2812C59.6077 36.2812 57.1997 40.0444 57.1997 44.6812C57.1997 49.318 59.6077 53.0812 59.9997 53.0812Z" fill="#151515"/>
<path id="Element_9" d="M51.5994 44.6812C51.5994 40.0421 50.3458 36.2812 48.7994 36.2812C47.253 36.2812 45.9994 40.0421 45.9994 44.6812C45.9994 49.3204 47.253 53.0812 48.7994 53.0812C50.3458 53.0812 51.5994 49.3204 51.5994 44.6812Z" fill="white"/>
</g>
</g>
</g>
<defs>
<filter id="filter0_dd_208_810" x="0.142858" y="0.714286" width="97.7143" height="97.7143" filterUnits="userSpaceOnUse" color-interpolation-filters="sRGB">
<feFlood flood-opacity="0" result="BackgroundImageFix"/>
<feColorMatrix in="SourceAlpha" type="matrix" values="0 0 0 0 0 0 0 0 0 0 0 0 0 0 0 0 0 0 127 0" result="hardAlpha"/>
<feOffset dy="4.57143"/>
<feGaussianBlur stdDeviation="3.42857"/>
<feComposite in2="hardAlpha" operator="out"/>
<feColorMatrix type="matrix" values="0 0 0 0 0.258824 0 0 0 0 0.278431 0 0 0 0 0.298039 0 0 0 0.08 0"/>
<feBlend mode="normal" in2="BackgroundImageFix" result="effect1_dropShadow_208_810"/>
<feColorMatrix in="SourceAlpha" type="matrix" values="0 0 0 0 0 0 0 0 0 0 0 0 0 0 0 0 0 0 127 0" result="hardAlpha"/>
<feOffset/>
<feGaussianBlur stdDeviation="0.285714"/>
<feComposite in2="hardAlpha" operator="out"/>
<feColorMatrix type="matrix" values="0 0 0 0 0.258824 0 0 0 0 0.278431 0 0 0 0 0.298039 0 0 0 0.32 0"/>
<feBlend mode="normal" in2="effect1_dropShadow_208_810" result="effect2_dropShadow_208_810"/>
<feBlend mode="normal" in="SourceGraphic" in2="effect2_dropShadow_208_810" result="shape"/>
</filter>
<clipPath id="clip0_208_810">
<rect x="7" y="3" width="84" height="84" rx="42" fill="white"/>
</clipPath>
</defs>
</svg>
