<svg width="98" height="99" viewBox="0 0 98 99" fill="none" xmlns="http://www.w3.org/2000/svg">
<g id="Circle" filter="url(#filter0_dd_208_820)">
<rect x="7" y="3" width="84" height="84" rx="42" fill="#F93939"/>
<g id="Element">
<path d="M48.9995 64.5995C59.8243 64.5995 68.5995 55.8243 68.5995 44.9995C68.5995 34.1748 59.8243 25.3995 48.9995 25.3995C38.1748 25.3995 29.3995 34.1748 29.3995 44.9995C29.3995 55.8243 38.1748 64.5995 48.9995 64.5995Z" fill="white"/>
<path fill-rule="evenodd" clip-rule="evenodd" d="M57.3995 42.1995H62.9995V47.7995H57.3995V42.1995Z" fill="#F93939"/>
<path fill-rule="evenodd" clip-rule="evenodd" d="M60.2003 53.3996C57.6467 56.7988 53.5811 58.9996 49.0003 58.9996C41.2723 58.9996 35.0003 52.7276 35.0003 44.9996C35.0003 37.2716 41.2723 30.9996 49.0003 30.9996C53.5811 30.9996 57.6467 33.2004 60.2003 36.5996H51.8003C47.1635 36.5996 43.4003 40.3628 43.4003 44.9996C43.4003 49.6364 47.1635 53.3996 51.8003 53.3996H60.2003Z" fill="#F93939"/>
</g>
</g>
<defs>
<filter id="filter0_dd_208_820" x="0.142858" y="0.714286" width="97.7143" height="97.7143" filterUnits="userSpaceOnUse" color-interpolation-filters="sRGB">
<feFlood flood-opacity="0" result="BackgroundImageFix"/>
<feColorMatrix in="SourceAlpha" type="matrix" values="0 0 0 0 0 0 0 0 0 0 0 0 0 0 0 0 0 0 127 0" result="hardAlpha"/>
<feOffset dy="4.57143"/>
<feGaussianBlur stdDeviation="3.42857"/>
<feComposite in2="hardAlpha" operator="out"/>
<feColorMatrix type="matrix" values="0 0 0 0 0.258824 0 0 0 0 0.278431 0 0 0 0 0.298039 0 0 0 0.08 0"/>
<feBlend mode="normal" in2="BackgroundImageFix" result="effect1_dropShadow_208_820"/>
<feColorMatrix in="SourceAlpha" type="matrix" values="0 0 0 0 0 0 0 0 0 0 0 0 0 0 0 0 0 0 127 0" result="hardAlpha"/>
<feOffset/>
<feGaussianBlur stdDeviation="0.285714"/>
<feComposite in2="hardAlpha" operator="out"/>
<feColorMatrix type="matrix" values="0 0 0 0 0.258824 0 0 0 0 0.278431 0 0 0 0 0.298039 0 0 0 0.32 0"/>
<feBlend mode="normal" in2="effect1_dropShadow_208_820" result="effect2_dropShadow_208_820"/>
<feBlend mode="normal" in="SourceGraphic" in2="effect2_dropShadow_208_820" result="shape"/>
</filter>
</defs>
</svg>
