<svg width="98" height="99" viewBox="0 0 98 99" fill="none" xmlns="http://www.w3.org/2000/svg">
<g id="Circle" filter="url(#filter0_dd_208_823)">
<g clip-path="url(#clip0_208_823)">
<rect x="7" y="3" width="84" height="84" rx="42" fill="white"/>
<g id="Element">
<path fill-rule="evenodd" clip-rule="evenodd" d="M49.0005 59C56.7285 59 63.0005 52.728 63.0005 45C63.0005 37.272 56.7285 31 49.0005 31C41.2725 31 35.0005 37.272 35.0005 45C35.0005 52.728 41.2725 59 49.0005 59ZM49.0005 53.4C53.6373 53.4 57.4005 49.6368 57.4005 45C57.4005 40.3632 53.6373 36.6 49.0005 36.6C44.3637 36.6 40.6005 40.3632 40.6005 45C40.6005 49.6368 44.3637 53.4 49.0005 53.4Z" fill="#1A47B8"/>
<path d="M49.0006 47.8001C50.547 47.8001 51.8006 46.5465 51.8006 45.0001C51.8006 43.4537 50.547 42.2001 49.0006 42.2001C47.4542 42.2001 46.2006 43.4537 46.2006 45.0001C46.2006 46.5465 47.4542 47.8001 49.0006 47.8001Z" fill="#1A47B8"/>
<path fill-rule="evenodd" clip-rule="evenodd" d="M-9.79913 59H107.801V87H-9.79913V59Z" fill="#249F58"/>
<path fill-rule="evenodd" clip-rule="evenodd" d="M-9.79913 3H107.801V31H-9.79913V3Z" fill="#FF6C2D"/>
</g>
</g>
</g>
<defs>
<filter id="filter0_dd_208_823" x="0.142858" y="0.714286" width="97.7143" height="97.7143" filterUnits="userSpaceOnUse" color-interpolation-filters="sRGB">
<feFlood flood-opacity="0" result="BackgroundImageFix"/>
<feColorMatrix in="SourceAlpha" type="matrix" values="0 0 0 0 0 0 0 0 0 0 0 0 0 0 0 0 0 0 127 0" result="hardAlpha"/>
<feOffset dy="4.57143"/>
<feGaussianBlur stdDeviation="3.42857"/>
<feComposite in2="hardAlpha" operator="out"/>
<feColorMatrix type="matrix" values="0 0 0 0 0.258824 0 0 0 0 0.278431 0 0 0 0 0.298039 0 0 0 0.08 0"/>
<feBlend mode="normal" in2="BackgroundImageFix" result="effect1_dropShadow_208_823"/>
<feColorMatrix in="SourceAlpha" type="matrix" values="0 0 0 0 0 0 0 0 0 0 0 0 0 0 0 0 0 0 127 0" result="hardAlpha"/>
<feOffset/>
<feGaussianBlur stdDeviation="0.285714"/>
<feComposite in2="hardAlpha" operator="out"/>
<feColorMatrix type="matrix" values="0 0 0 0 0.258824 0 0 0 0 0.278431 0 0 0 0 0.298039 0 0 0 0.32 0"/>
<feBlend mode="normal" in2="effect1_dropShadow_208_823" result="effect2_dropShadow_208_823"/>
<feBlend mode="normal" in="SourceGraphic" in2="effect2_dropShadow_208_823" result="shape"/>
</filter>
<clipPath id="clip0_208_823">
<rect x="7" y="3" width="84" height="84" rx="42" fill="white"/>
</clipPath>
</defs>
</svg>
