<svg width="98" height="99" viewBox="0 0 98 99" fill="none" xmlns="http://www.w3.org/2000/svg">
<g id="Circle" filter="url(#filter0_dd_208_828)">
<g clip-path="url(#clip0_208_828)">
<rect x="7" y="3" width="84" height="84" rx="42" fill="#F93939"/>
<g id="Element">
<path d="M96.5987 3H1.39867C-4.78692 3 -9.80133 8.01441 -9.80133 14.2V75.8C-9.80133 81.9856 -4.78692 87 1.39867 87H96.5987C102.784 87 107.799 81.9856 107.799 75.8V14.2C107.799 8.01441 102.784 3 96.5987 3Z" fill="#F93939"/>
<path fill-rule="evenodd" clip-rule="evenodd" d="M-9.80133 3H107.799V47.8H-9.80133V3Z" fill="#1A47B8"/>
<path fill-rule="evenodd" clip-rule="evenodd" d="M-9.80133 3V87.1848L46.1987 45L-9.80133 3Z" fill="white"/>
<path fill-rule="evenodd" clip-rule="evenodd" d="M15.315 47.7159C20.187 47.4079 23.799 46.3159 23.799 44.9999C23.799 43.6895 20.187 42.5919 15.315 42.2839C15.007 37.4119 13.915 33.7999 12.599 33.7999C11.2886 33.7999 10.191 37.4119 9.883 42.2839C5.011 42.5919 1.399 43.6839 1.399 44.9999C1.399 46.3103 5.011 47.4079 9.883 47.7159C10.1854 52.5879 11.283 56.1999 12.599 56.1999C13.9094 56.1999 15.007 52.5879 15.315 47.7159Z" fill="#FFDA2C"/>
<path d="M32.1987 47.8001C33.7451 47.8001 34.9987 46.5465 34.9987 45.0001C34.9987 43.4537 33.7451 42.2001 32.1987 42.2001C30.6523 42.2001 29.3987 43.4537 29.3987 45.0001C29.3987 46.5465 30.6523 47.8001 32.1987 47.8001Z" fill="#FFDA2C"/>
<path d="M4.199 31.0001C5.7454 31.0001 6.999 29.7465 6.999 28.2001C6.999 26.6537 5.7454 25.4001 4.199 25.4001C2.65261 25.4001 1.399 26.6537 1.399 28.2001C1.399 29.7465 2.65261 31.0001 4.199 31.0001Z" fill="#FFDA2C"/>
<path d="M4.199 64.6C5.7454 64.6 6.999 63.3464 6.999 61.8C6.999 60.2536 5.7454 59 4.199 59C2.65261 59 1.399 60.2536 1.399 61.8C1.399 63.3464 2.65261 64.6 4.199 64.6Z" fill="#FFDA2C"/>
</g>
</g>
</g>
<defs>
<filter id="filter0_dd_208_828" x="0.142858" y="0.714286" width="97.7143" height="97.7143" filterUnits="userSpaceOnUse" color-interpolation-filters="sRGB">
<feFlood flood-opacity="0" result="BackgroundImageFix"/>
<feColorMatrix in="SourceAlpha" type="matrix" values="0 0 0 0 0 0 0 0 0 0 0 0 0 0 0 0 0 0 127 0" result="hardAlpha"/>
<feOffset dy="4.57143"/>
<feGaussianBlur stdDeviation="3.42857"/>
<feComposite in2="hardAlpha" operator="out"/>
<feColorMatrix type="matrix" values="0 0 0 0 0.258824 0 0 0 0 0.278431 0 0 0 0 0.298039 0 0 0 0.08 0"/>
<feBlend mode="normal" in2="BackgroundImageFix" result="effect1_dropShadow_208_828"/>
<feColorMatrix in="SourceAlpha" type="matrix" values="0 0 0 0 0 0 0 0 0 0 0 0 0 0 0 0 0 0 127 0" result="hardAlpha"/>
<feOffset/>
<feGaussianBlur stdDeviation="0.285714"/>
<feComposite in2="hardAlpha" operator="out"/>
<feColorMatrix type="matrix" values="0 0 0 0 0.258824 0 0 0 0 0.278431 0 0 0 0 0.298039 0 0 0 0.32 0"/>
<feBlend mode="normal" in2="effect1_dropShadow_208_828" result="effect2_dropShadow_208_828"/>
<feBlend mode="normal" in="SourceGraphic" in2="effect2_dropShadow_208_828" result="shape"/>
</filter>
<clipPath id="clip0_208_828">
<rect x="7" y="3" width="84" height="84" rx="42" fill="white"/>
</clipPath>
</defs>
</svg>
